<?xml version="1.0" standalone="no"?><!DOCTYPE svg PUBLIC "-//W3C//DTD SVG 1.1//EN" "http://www.w3.org/Graphics/SVG/1.1/DTD/svg11.dtd"><svg class="icon" width="64" height="64" viewBox="0 0 1280 1024" version="1.1" xmlns="http://www.w3.org/2000/svg"><path d="M964.4 744.2C953 730.4 500 150 484.6 131c-27.4-34.4 0-33.6 38.4-33.8 19.4-0.2 212.6-1.2 233-1.2 48.2-0.2 57.4 1.2 76.8 25.6 4.2 5.4 410.2 491.6 414.4 496.6 11 13.4 30.4 38.2 14.4 46.8-4.8 2.6-229.2 95.4-235.6 97.8-20.2 8-35 13.6-61.6-18.6m229.4-11.2s-230 100.8-235 103.2c-32 14.6-53.8-6.4-73.4-29.2l-114.2-148c-10.8-1.8-120.8-19.2-130.6-18.6-6.2 0.4-19.2 1.6-28.8 5.8-9.8 4.2-290.4 105.6-300.4 109.4-10.2 4-22.8 7.2-22.2 15.2 0.4 5 4 5.2 9.2 7 5.4 1.6 601.8 135.2 616 138.2 31.2 6.6 77 21 107.2 3.4 4.2-2.4 247.6-152.8 251.6-155.6 10.8-8 8.6-13.6-3.4-16.4-4.6-0.6-49.2-9.4-76-14.4m-652-362.6s-24 3.2-50 30.2c-18 18.6-484.2 478.2-486.8 481.8-14 20 3.2 13.6 31.4 3.4 1.6 0 229-73.2 229-73.2 1-1.2-0.2-0.2 1.2-1.2-0.8-10.2-1.6-52.4-2-55.4-1.2-10.4 4.4-13.8 14-17.8l185.2-67.6c1.2-1.6 177-163.4 180.4-166.6v-2l-102.4-131.6" /></svg>