<?xml version="1.0" standalone="no"?><!DOCTYPE svg PUBLIC "-//W3C//DTD SVG 1.1//EN" "http://www.w3.org/Graphics/SVG/1.1/DTD/svg11.dtd"><svg t="1527736472626" class="icon" style="" viewBox="0 0 1024 1024" version="1.1" xmlns="http://www.w3.org/2000/svg" p-id="1631" xmlns:xlink="http://www.w3.org/1999/xlink" width="64" height="64"><defs><style type="text/css"></style></defs><path d="M960.644555 652.485615V951.022918c0 30.30419-23.480784 54.826699-52.540633 54.8267H109.102349c-29.058826 0-52.538587-24.64326-52.538587-54.8267V652.485615c0-30.302143 13.246699-54.827723 42.305525-54.827723 29.099758 0 39.853683 24.488741 39.853683 54.79293v271.158747h739.801263V651.427516c0-30.30419 11.738345-53.769624 40.836057-53.769624 28.898167 0 41.284265 24.52558 41.284265 54.827723z m-624.24748-316.759317l131.126456-151.916969v493.200842c0 30.302143 11.920494 60.766992 41.019229 60.766992 29.058826 0 41.180911-30.464849 41.180911-60.766992V183.809329l130.965798 151.916969c10.236132 10.997472 23.921829 16.496719 37.486776 16.496719 13.246699 0 26.490328-5.178953 36.765345-15.733333 20.75265-21.191648 21.073968-55.870472 0.723477-77.544097L546.191218 35.785018c-9.953699-10.556427-23.51967-16.496719-37.526685-16.496719-14.128789 0-27.694759 5.940292-37.488822 16.496719L261.380544 258.945587c-20.348444 21.673625-20.027126 56.351426 0.763386 77.544097 20.790512 21.231557 54.063313 20.750603 74.253145-0.763386z m0 0" p-id="1632"></path></svg>