<?xml version="1.0" standalone="no"?><!DOCTYPE svg PUBLIC "-//W3C//DTD SVG 1.1//EN" "http://www.w3.org/Graphics/SVG/1.1/DTD/svg11.dtd"><svg t="1555384187943" class="icon" style="" viewBox="0 0 1024 1024" version="1.1" xmlns="http://www.w3.org/2000/svg" p-id="2503" xmlns:xlink="http://www.w3.org/1999/xlink" width="64" height="64"><defs><style type="text/css"></style></defs><path d="M552.537763 877.439016c0-11.037381-4.01443-20.591991-12.035104-28.655643-8.019651-8.069793-17.521049-12.100596-28.503171-12.100596-10.978029 0-20.476357 4.030803-28.500101 12.100596-8.023744 8.063653-12.034081 17.618263-12.034081 28.655643 0 11.036357 4.009314 20.589944 12.034081 28.658713 8.022721 8.064676 17.522072 12.101619 28.500101 12.101619 10.982122 0 20.479427-4.036943 28.503171-12.101619C548.523333 898.02896 552.537763 888.475374 552.537763 877.439016L552.537763 877.439016zM795.756157 775.544325 795.756157 164.157757c0-5.517667-2.007727-10.295484-6.018064-14.328333-4.009314-4.031826-8.762571-6.049786-14.249539-6.049786L248.515538 143.779637c-5.491061 0-10.239202 2.01796-14.248516 6.049786-4.015454 4.03285-6.018064 8.810666-6.018064 14.328333l0 611.386568c0 5.520737 2.00261 10.295484 6.018064 14.32731 4.009314 4.030803 8.758478 6.05081 14.248516 6.05081l526.973016 0c5.491061 0 10.240225-2.020006 14.249539-6.05081C793.748431 785.839809 795.756157 781.059945 795.756157 775.544325L795.756157 775.544325zM876.827591 164.16185l0 692.899046c0 28.022217-9.918907 52.006468-29.767977 71.964008-19.843954 19.957541-43.703361 29.930683-71.571059 29.930683L248.515538 958.955588c-27.869744 0-51.726082-9.973142-71.578222-29.930683-19.847024-19.952424-29.765931-43.941791-29.765931-71.964008L147.171386 164.16185c0-28.02017 9.92607-52.011584 29.765931-71.968102 19.851117-19.958564 43.703361-29.93273 71.578222-29.93273l526.973016 0c27.867698 0 51.723012 9.978259 71.571059 29.93273C866.908684 112.150266 876.827591 136.13554 876.827591 164.16185L876.827591 164.16185zM876.827591 164.16185" p-id="2504"></path></svg>