<?xml version="1.0" standalone="no"?><!DOCTYPE svg PUBLIC "-//W3C//DTD SVG 1.1//EN" "http://www.w3.org/Graphics/SVG/1.1/DTD/svg11.dtd"><svg t="1556068611054" class="icon" style="" viewBox="0 0 1086 1024" version="1.1" xmlns="http://www.w3.org/2000/svg" p-id="2114" xmlns:xlink="http://www.w3.org/1999/xlink" width="67.875" height="64"><defs><style type="text/css"></style></defs><path d="M793.743847 443.12069a32.736503 32.736503 0 0 0 15.887289-21.100305 38.259819 38.259819 0 0 0-3.102987-26.375382 34.132847 34.132847 0 0 0-20.758977-15.514931 34.784474 34.784474 0 0 0-26.034053 2.792688l-184.906942 108.294215a98.39569 98.39569 0 0 0-36.180818-11.791347c15.514931 3.102986 9.650287 2.17209 3.320195 2.17209a64.72829 64.72829 0 0 0-47.785986 20.479708 66.683171 66.683171 0 0 0-20.16941 48.406583 69.413799 69.413799 0 0 0 67.955396 68.575993 64.75932 64.75932 0 0 0 47.785986-20.479708 66.000515 66.000515 0 0 0 20.16941-48.096285zM543.022569 0.014274a521.301666 521.301666 0 0 0-211.406444 43.441805 550.624885 550.624885 0 0 0-289.012126 292.921889 541.719315 541.719315 0 0 0-42.541939 214.106041 557.265275 557.265275 0 0 0 16.973334 138.082882A541.626225 541.626225 0 0 0 67.0245 816.09962a552.890065 552.890065 0 0 0 80.181161 111.086903 520.619009 520.619009 0 0 0 107.797737 88.745403 32.084876 32.084876 0 0 0 25.537576 4.34418 34.412116 34.412116 0 0 0 10.643242-62.37002 489.620178 489.620178 0 0 1-79.188205-62.990618 498.401629 498.401629 0 0 1-63.176797-75.712861l36.180818-21.720903a31.402219 31.402219 0 0 0 15.51493-20.479709 31.898697 31.898697 0 0 0-3.661523-25.754784 31.37119 31.37119 0 0 0-20.16941-16.756125 30.781622 30.781622 0 0 0-25.537576 3.723583l-36.180818 20.790007a467.806186 467.806186 0 0 1-30.781622-84.401222 492.940373 492.940373 0 0 1-14.925363-90.917493h37.235833a31.960757 31.960757 0 0 0 24.451531-10.239854 35.498161 35.498161 0 0 0 0-48.406584 31.960757 31.960757 0 0 0-24.451531-10.239854h-37.235833a453.966868 453.966868 0 0 1 15.51493-91.848389 483.569355 483.569355 0 0 1 32.395175-85.642416l33.977698 20.479708a19.300574 19.300574 0 0 0 7.943645 3.102986 31.898697 31.898697 0 0 0 9.029689 1.241195 35.622281 35.622281 0 0 0 16.507886-4.344181 28.733651 28.733651 0 0 0 12.225766-12.722243 31.34016 31.34016 0 0 0 3.661523-26.065083 30.098965 30.098965 0 0 0-15.51493-20.16941l-33.977698-20.479708a488.999581 488.999581 0 0 1 57.312153-69.817188 438.451937 438.451937 0 0 1 70.158516-58.02584l19.052335 33.201951a27.926875 27.926875 0 0 0 12.225765 13.032542 36.863475 36.863475 0 0 0 17.469812 4.344181 41.890312 41.890312 0 0 0 8.564242-1.241195 50.951032 50.951032 0 0 0 8.564241-3.102986 35.994639 35.994639 0 0 0 15.514931-21.100305 33.698429 33.698429 0 0 0-3.661524-26.375382l-19.052334-33.51225a441.492864 441.492864 0 0 1 82.384281-30.409264 555.434514 555.434514 0 0 1 88.714373-15.825229v43.131506a33.760489 33.760489 0 0 0 34.132847 34.443146 32.612384 32.612384 0 0 0 24.420501-9.619257 34.132847 34.132847 0 0 0 9.526167-24.823889V69.521163a441.710073 441.710073 0 0 1 90.793373 15.825229 493.374791 493.374791 0 0 1 84.432252 31.650458l-19.083364 32.271056a36.304937 36.304937 0 0 0-2.699598 26.375382 35.094773 35.094773 0 0 0 15.514931 21.100305 30.316174 30.316174 0 0 0 8.564241 3.102986 26.685681 26.685681 0 0 0 8.564242 1.241195 35.529191 35.529191 0 0 0 29.819696-17.066424l18.090409-32.271056a491.078582 491.078582 0 0 1 188.351257 255.996354l-93.896359-108.914812a28.95086 28.95086 0 0 0-15.887289 20.479708 35.7464 35.7464 0 0 0 3.102986 25.754785 33.667399 33.667399 0 0 0 13.31181 13.032542 34.877564 34.877564 0 0 0 16.507886 4.34418 27.740696 27.740696 0 0 0 8.564242-1.241194 33.170922 33.170922 0 0 0 8.564242-3.102986l31.898697-18.307618a488.316924 488.316924 0 0 1 31.2781 84.401222 470.474754 470.474754 0 0 1 15.51493 91.848389h-37.235833a32.612384 32.612384 0 0 0-23.955053 10.239854 33.41916 33.41916 0 0 0-10.146764 24.203291 35.374042 35.374042 0 0 0 34.132847 34.753445h37.235833a506.469393 506.469393 0 0 1-14.304766 89.676298 446.271462 446.271462 0 0 1-30.316174 83.470327l-33.977698-19.548813a32.488265 32.488265 0 0 0-26.034053-3.723583 34.132847 34.132847 0 0 0-20.758978 16.756125 35.901549 35.901549 0 0 0-3.102986 25.754785 29.292189 29.292189 0 0 0 15.887289 20.479708l33.977698 20.479708a514.444067 514.444067 0 0 1-65.379917 77.884952 483.259057 483.259057 0 0 1-81.267206 63.921513 33.41916 33.41916 0 0 0-14.925364 21.100306 35.063743 35.063743 0 0 0 4.282121 26.375382 32.146936 32.146936 0 0 0 12.225766 11.791347 34.846534 34.846534 0 0 0 16.507886 4.344181 31.960757 31.960757 0 0 0 9.029689-1.241195 18.617917 18.617917 0 0 0 9.02969-4.34418 532.379327 532.379327 0 0 0 108.387305-88.435104 555.031125 555.031125 0 0 0 81.267206-111.397202 541.315927 541.315927 0 0 0 50.951032-127.843027 559.158097 559.158097 0 0 0 17.469812-140.87557 536.816597 536.816597 0 0 0-42.54194-212.864847 552.610796 552.610796 0 0 0-289.012126-293.232187A517.360874 517.360874 0 0 0 543.022569 0.014274z m0 0" p-id="2115"></path></svg>