<?xml version="1.0" standalone="no"?><!DOCTYPE svg PUBLIC "-//W3C//DTD SVG 1.1//EN" "http://www.w3.org/Graphics/SVG/1.1/DTD/svg11.dtd"><svg t="1548123626979" class="icon" style="" viewBox="0 0 1024 1024" version="1.1" xmlns="http://www.w3.org/2000/svg" p-id="10237" xmlns:xlink="http://www.w3.org/1999/xlink" width="64" height="64"><defs><style type="text/css"></style></defs><path d="M921.6 0H102.4C45.8 0 0 46 0 102.8V921c0 74.6 76.6 124.4 144.3 93.8L470.1 868c26.7-12 57.2-12 83.8 0l325.8 146.8c67.8 30.5 144.3-19.3 144.3-93.8V102.8C1024 46 978.2 0 921.6 0zM512 514.2c-84.8 0-153.6-69.1-153.6-154.3S427.2 205.7 512 205.7 665.6 274.8 665.6 360 596.8 514.2 512 514.2z" fill="" p-id="10238"></path></svg>