<?xml version="1.0" standalone="no"?><!DOCTYPE svg PUBLIC "-//W3C//DTD SVG 1.1//EN" "http://www.w3.org/Graphics/SVG/1.1/DTD/svg11.dtd"><svg t="1532658756535" class="icon" style="" viewBox="0 0 1024 1024" version="1.1" xmlns="http://www.w3.org/2000/svg" p-id="1887" xmlns:xlink="http://www.w3.org/1999/xlink" width="64" height="64"><defs><style type="text/css"></style></defs><path d="M358.848 81.344c-29.28 0.192-56.224 6.944-77.92 19.68a88.64 88.64 0 0 0-27.744 24.704c-7.36 10.08-12.096 22.656-12.032 35.936v323.072c-133.184 0-241.12 106.4-241.12 237.6 0 117.024 85.888 214.048 198.912 233.792l-46.912-343.36a13.6 13.6 0 0 1 11.84-15.328 13.76 13.76 0 0 1 15.488 11.68l47.936 350.08c4.64 0.352 9.184 0.8 13.856 0.8a242.56 242.56 0 0 0 132.736-39.392L914.016 960v-98.432l109.952-4.8V63.968l-665.12 17.376zM223.84 754.432l-19.936-145.408c63.84 0.576 126.656 35.648 191.904-11.52-16 51.808-25.856 62.08-44.128 97.088 27.04 28.896 39.328 36.288 64.064 48.288-65.216 47.2-128.096 12.128-191.904 11.552z m464-160.96l-229.856-16.704 5.28-63.328 229.856 16.736-5.28 63.296z m102.24-151.2l-398.144-29.888 5.376-63.2 398.208 29.824-5.44 63.264z m173.792 360.8l-49.856 2.176V225.984l-553.44-40.32h-1.248c-19.232 0.032-36.192-4.832-46.304-10.944a31.84 31.84 0 0 1-9.952-8.416c-1.632-2.368-1.76-3.52-1.824-4.64 0.064-1.088 0.192-2.272 1.824-4.64 2.368-3.456 8.768-8.768 18.784-12.736 9.92-4 23.072-6.656 37.472-6.624h0.224l604.288-15.84v681.248h0.032z" p-id="1888"></path></svg>